<?xml version="1.0" encoding="utf-8"?>

<!-- Uploaded to: SVG Repo, www.svgrepo.com, Generator: SVG Repo Mixer Tools -->
<svg fill="#000000" height="800px" width="800px" version="1.1" id="Icons" xmlns="http://www.w3.org/2000/svg" xmlns:xlink="http://www.w3.org/1999/xlink" 
	 viewBox="0 0 32 32" xml:space="preserve">
<path d="M28,3H4C3.4,3,3,3.4,3,4v16c0,0.6,0.4,1,1,1h24c0.6,0,1-0.4,1-1V4C29,3.4,28.6,3,28,3z M18.6,12.8l-4,3
	C14.4,15.9,14.2,16,14,16c-0.2,0-0.3,0-0.4-0.1C13.2,15.7,13,15.4,13,15V9c0-0.4,0.2-0.7,0.6-0.9c0.3-0.2,0.7-0.1,1,0.1l4,3
	c0.3,0.2,0.4,0.5,0.4,0.8S18.9,12.6,18.6,12.8z"/>
<g>
	<path d="M10,29c-1.7,0-3-1.3-3-3s1.3-3,3-3s3,1.3,3,3S11.7,29,10,29z"/>
</g>
<g>
	<path d="M8,27H4c-0.6,0-1-0.4-1-1s0.4-1,1-1h4c0.6,0,1,0.4,1,1S8.6,27,8,27z"/>
</g>
<g>
	<path d="M28,27H15c-0.6,0-1-0.4-1-1s0.4-1,1-1h13c0.6,0,1,0.4,1,1S28.6,27,28,27z"/>
</g>
</svg>