<?xml version="1.0" encoding="iso-8859-1"?>
<!-- Uploaded to: SVG Repo, www.svgrepo.com, Generator: SVG Repo Mixer Tools -->
<svg fill="#000000" height="800px" width="800px" version="1.1" id="Layer_1" xmlns="http://www.w3.org/2000/svg" xmlns:xlink="http://www.w3.org/1999/xlink" 
	 viewBox="0 0 491.52 491.52" xml:space="preserve">
<g>
	<g>
		<path d="M194.56,57.86v130.06l112.64-65.04L194.56,57.86z M215.04,93.32l51.2,29.56l-51.2,29.56V93.32z"/>
	</g>
</g>
<g>
	<g>
		<path d="M491.52,286.72V0H0v286.72h112.64v92.16H80.466c-4.579-17.618-20.477-30.72-39.506-30.72C18.375,348.16,0,366.53,0,389.12
			c0,22.59,18.375,40.96,40.96,40.96c19.029,0,34.927-13.102,39.506-30.72h52.654V286.72h51.2v124.334
			c-17.616,4.579-30.72,20.472-30.72,39.506c0,22.59,18.375,40.96,40.96,40.96s40.96-18.37,40.96-40.96
			c0-19.033-13.104-34.927-30.72-39.506V286.72h81.92v124.334C269.104,415.633,256,431.527,256,450.56
			c0,22.59,18.375,40.96,40.96,40.96c22.585,0,40.96-18.37,40.96-40.96c0-19.033-13.104-34.927-30.72-39.506V286.72h51.2v112.64
			h52.654c4.579,17.618,20.477,30.72,39.506,30.72c22.585,0,40.96-18.37,40.96-40.96c0-22.59-18.375-40.96-40.96-40.96
			c-19.029,0-34.927,13.102-39.506,30.72H378.88v-92.16H491.52z M40.96,409.6c-11.295,0-20.48-9.19-20.48-20.48
			s9.185-20.48,20.48-20.48s20.48,9.19,20.48,20.48S52.255,409.6,40.96,409.6z M450.56,368.64c11.295,0,20.48,9.19,20.48,20.48
			s-9.185,20.48-20.48,20.48s-20.48-9.19-20.48-20.48S439.265,368.64,450.56,368.64z M20.48,20.48h450.56v194.56H92.16v-20.48H71.68
			v20.48h-51.2V20.48z M215.04,450.56c0,11.29-9.185,20.48-20.48,20.48s-20.48-9.19-20.48-20.48s9.185-20.48,20.48-20.48
			S215.04,439.27,215.04,450.56z M317.44,450.56c0,11.29-9.185,20.48-20.48,20.48c-11.295,0-20.48-9.19-20.48-20.48
			s9.185-20.48,20.48-20.48C308.255,430.08,317.44,439.27,317.44,450.56z M20.48,266.24v-30.72h51.2V256h20.48v-20.48h378.88v30.72
			H20.48z"/>
	</g>
</g>
</svg>